<?xml version="1.0" encoding="utf-8"?>
<!-- Generator: Adobe Illustrator 18.1.1, SVG Export Plug-In . SVG Version: 6.00 Build 0)  -->
<!DOCTYPE svg PUBLIC "-//W3C//DTD SVG 1.1//EN" "http://www.w3.org/Graphics/SVG/1.1/DTD/svg11.dtd">
<svg version="1.1" id="Layer_1" xmlns="http://www.w3.org/2000/svg" xmlns:xlink="http://www.w3.org/1999/xlink" x="0px" y="0px"
	 width="176.7px" height="49.5px" viewBox="-114.8 75.9 176.7 49.5" enable-background="new -114.8 75.9 176.7 49.5"
	 xml:space="preserve">
<g>
	<g>
		<polygon fill="#FFF6C5" points="-114.5,124.9 -95.1,115.2 -75.7,124.9 -56.2,115.2 -56.2,76.3 -75.7,86.1 -95.1,76.3 -114.5,86.1 
					"/>
	</g>
	<g>
		<polygon fill="#B5E655" points="-95.1,112.8 -112.4,121.4 -112.4,87.4 -95.1,78.8 -75.7,88.5 -58.4,79.8 -58.4,113.9 -75.7,122.5 
					"/>
	</g>
	<g>
		<rect x="-95.4" y="76.3" fill="#424142" width="0.5" height="38.9"/>
	</g>
	<g>
		<rect x="-75.9" y="86.1" fill="#424142" width="0.5" height="38.9"/>
	</g>
	<g>
		<polygon fill="#ECF0F1" points="-58.5,106.6 -66,110.3 -66,117.5 -58.3,113.8 		"/>
	</g>
	<g>
		<g>
			<path fill="#424142" d="M-111.9,96.8c-0.2,0-0.4,0-0.7,0l0.1-1.1c0.3,0,0.6,0,0.9,0l0.1,1.1C-111.6,96.8-111.8,96.8-111.9,96.8z"
				/>
		</g>
		<g>
			<path fill="#424142" d="M-84.3,111.1c-0.4-0.1-0.8-0.1-1.2-0.3c-0.3-0.1-0.6-0.2-0.9-0.3l0.4-1c0.3,0.1,0.6,0.2,0.8,0.3
				c0.4,0.1,0.8,0.2,1.1,0.2L-84.3,111.1z M-82.5,111.1l-0.2-1.1c0.6-0.1,1.1-0.4,1.4-0.9l0.9,0.6C-80.9,110.5-81.6,111-82.5,111.1z
				 M-88,109.8c-0.7-0.4-1.3-0.9-1.8-1.4l0.8-0.7c0.4,0.5,0.9,0.9,1.5,1.2L-88,109.8z M-79.6,108.2l-1-0.3c0.2-0.6,0.3-1.2,0.3-2
				l1.1,0.1C-79.4,106.9-79.5,107.6-79.6,108.2z M-90.8,107c-0.4-0.6-0.6-1.3-0.9-2.1l1-0.3c0.2,0.7,0.5,1.3,0.8,1.9L-90.8,107z
				 M-79.2,104.4h-1.1v-0.1c0-0.6,0-1.3,0-2h1.1C-79.2,103-79.2,103.7-79.2,104.4L-79.2,104.4z M-92.1,103.3
				c-0.1-0.6-0.2-1.3-0.4-2.1l1.1-0.2c0.1,0.9,0.2,1.5,0.4,2.1L-92.1,103.3z M-80.4,100.6c0-0.7,0-1.4-0.1-2.2h1.1
				c0,0.7,0,1.4,0.1,2.1L-80.4,100.6z M-92.6,99.6c-0.1-0.7-0.2-1.4-0.3-2.1l1.1-0.2c0.1,0.7,0.2,1.5,0.3,2.1L-92.6,99.6z M-66.9,98
				c-0.2-0.7-0.4-1.3-0.7-1.9l1-0.5c0.3,0.6,0.6,1.4,0.8,2.1L-66.9,98z M-79.4,96.9l-1.1-0.1c0-0.8,0.1-1.6,0.3-2.2l1.1,0.2
				C-79.2,95.4-79.3,96.1-79.4,96.9z M-109.7,96.2l-0.5-1c0.6-0.3,1.1-0.7,1.7-1.2l0.7,0.8C-108.4,95.4-109,95.9-109.7,96.2z
				 M-93.3,96c-0.2-0.7-0.5-1.3-0.8-1.8l0.9-0.6c0.4,0.6,0.7,1.3,0.9,2.1L-93.3,96z M-68.4,94.8c-0.4-0.6-0.8-1.1-1.3-1.5l0.7-0.8
				c0.6,0.5,1.1,1,1.5,1.7L-68.4,94.8z M-106.6,93.9l-0.7-0.8c0.5-0.4,1.1-0.8,1.8-1.3l0.6,0.9C-105.6,93.1-106.2,93.6-106.6,93.9z
				 M-78.7,93.4l-1-0.4c0.4-0.8,0.9-1.4,1.5-1.9l0.6,0.9C-78.1,92.3-78.4,92.8-78.7,93.4z M-95,93.1c-0.5-0.4-1-0.8-1.6-1l0.4-1
				c0.7,0.3,1.4,0.7,2,1.2L-95,93.1z M-71,92.5c-0.6-0.3-1.2-0.5-1.9-0.7l0.3-1c0.8,0.2,1.5,0.5,2.1,0.8L-71,92.5z M-103.6,92.1
				l-0.4-1c0.7-0.3,1.4-0.5,2.2-0.6l0.2,1.1C-102.3,91.6-102.9,91.8-103.6,92.1z M-98.1,91.6c-0.6-0.1-1.2-0.2-1.9-0.2h-0.1v-1.1
				h0.1c0.7,0,1.4,0.1,2.1,0.2L-98.1,91.6z M-76.3,91.5l-0.2-1.1c0.3,0,0.5-0.1,0.8-0.1c0.5,0,1,0,1.5,0l-0.1,1.1
				c-0.4,0-0.9,0-1.3,0C-75.9,91.5-76.1,91.5-76.3,91.5z"/>
		</g>
		<g>
			<path fill="#424142" d="M-66.5,100.6c0,0,0-0.4-0.1-1l1.1-0.1c0.1,0.7,0.1,1.1,0.1,1.1H-66.5z"/>
		</g>
	</g>
	<g>
		<polygon fill="#F2594B" points="-63.1,102.1 -64.5,100.7 -65.9,102.1 -67.3,100.7 -68.7,102.1 -67.3,103.5 -68.7,104.9 
			-67.3,106.3 -65.9,104.9 -64.5,106.3 -63.1,104.9 -64.5,103.5 		"/>
	</g>
	<g>
		<path fill="#32C8F6" d="M-66.1,111.2c-4.7-1.1-7.7,0.8-10.8,2.9c-3.1,2.2-6,2.7-10.3-1.2c-4.3-3.9-6.4-3.4-10.4-2.1
			s-4.2-1-8.6,0.2c-4.5,1.3-6.1,6.4-6.1,6.4v3.9h0.3l17-8.6l19.4,9.7l9.8-4.9"/>
	</g>
	<g>
		<polygon fill="#FFDD4B" points="-61.9,84.5 -60.7,82.4 -59.5,83.1 		"/>
	</g>
	<g opacity="0.75">
		<polygon fill="#FFF6C5" points="-95.2,76.3 -95,115.5 -75.8,124.7 -75.9,86 		"/>
	</g>
	<g opacity="0.5">
		<polygon fill="#DED4AA" points="-75.9,86 -75.8,124.7 -56.2,115.4 -56.4,76.3 		"/>
	</g>
	<g opacity="0.5">
		<polygon fill="#DED4AA" points="-114.6,86 -114.5,124.7 -95,115.4 -95.2,76.3 		"/>
	</g>
	<g>
		<path fill="#424142" d="M-114.8,125.4V85.9l19.7-9.9l19.4,9.7l19.7-9.8v39.5l-0.1,0.1l-19.6,9.8l-0.1-0.1l-19.3-9.7L-114.8,125.4z
			 M-95.1,114.9l0.1,0.1l19.3,9.7l19.2-9.6V76.8l-19.2,9.6l-19.4-9.8l-19.2,9.6v38.3L-95.1,114.9z"/>
	</g>
	<g>
		<path fill="#424142" d="M-75.7,122.8L-75.7,122.8l-19.4-9.8l-17.5,8.9V87.2l17.5-8.8l19.4,9.7l17.5-8.8v34.6l-0.1,0.1L-75.7,122.8
			z M-95.1,112.5l0.1,0.1l19.3,9.7l17-8.5V80.3l-17,8.5l-19.4-9.7l-17,8.5V121L-95.1,112.5z"/>
	</g>
	<g>
		<rect x="-95.4" y="76.3" fill="#424142" width="0.5" height="38.9"/>
	</g>
	<g>
		<rect x="-75.9" y="86.1" fill="#424142" width="0.5" height="38.9"/>
	</g>
	<g>
		<polygon fill="#424142" points="-65.7,117.5 -66.2,117.5 -66.2,110.2 -58.6,106.4 -58.4,106.9 -65.7,110.5 		"/>
	</g>
	<g>
		<g>
			<path fill="#424142" d="M-111.9,96.8c-0.2,0-0.4,0-0.7,0l0.1-1.1c0.3,0,0.6,0,0.9,0l0.1,1.1C-111.6,96.8-111.8,96.8-111.9,96.8z"
				/>
		</g>
		<g>
			<path fill="#424142" d="M-84.3,111.1c-0.4-0.1-0.8-0.1-1.2-0.3c-0.3-0.1-0.6-0.2-0.9-0.3l0.4-1c0.3,0.1,0.6,0.2,0.8,0.3
				c0.4,0.1,0.8,0.2,1.1,0.2L-84.3,111.1z M-82.5,111.1l-0.2-1.1c0.6-0.1,1.1-0.4,1.4-0.9l0.9,0.6C-80.9,110.5-81.6,111-82.5,111.1z
				 M-88,109.8c-0.7-0.4-1.3-0.9-1.8-1.4l0.8-0.7c0.4,0.5,0.9,0.9,1.5,1.2L-88,109.8z M-79.6,108.2l-1-0.3c0.2-0.6,0.3-1.2,0.3-2
				l1.1,0.1C-79.4,106.9-79.5,107.6-79.6,108.2z M-90.8,107c-0.4-0.6-0.6-1.3-0.9-2.1l1-0.3c0.2,0.7,0.5,1.3,0.8,1.9L-90.8,107z
				 M-79.2,104.4h-1.1v-0.1c0-0.6,0-1.3,0-2h1.1C-79.2,103-79.2,103.7-79.2,104.4L-79.2,104.4z M-92.1,103.3
				c-0.1-0.6-0.2-1.3-0.4-2.1l1.1-0.2c0.1,0.9,0.2,1.5,0.4,2.1L-92.1,103.3z M-80.4,100.6c0-0.7,0-1.4-0.1-2.2h1.1
				c0,0.7,0,1.4,0.1,2.1L-80.4,100.6z M-92.6,99.6c-0.1-0.7-0.2-1.4-0.3-2.1l1.1-0.2c0.1,0.7,0.2,1.5,0.3,2.1L-92.6,99.6z M-66.9,98
				c-0.2-0.7-0.4-1.3-0.7-1.9l1-0.5c0.3,0.6,0.6,1.4,0.8,2.1L-66.9,98z M-79.4,96.9l-1.1-0.1c0-0.8,0.1-1.6,0.3-2.2l1.1,0.2
				C-79.2,95.4-79.3,96.1-79.4,96.9z M-109.7,96.2l-0.5-1c0.6-0.3,1.1-0.7,1.7-1.2l0.7,0.8C-108.4,95.4-109,95.9-109.7,96.2z
				 M-93.3,96c-0.2-0.7-0.5-1.3-0.8-1.8l0.9-0.6c0.4,0.6,0.7,1.3,0.9,2.1L-93.3,96z M-68.4,94.8c-0.4-0.6-0.8-1.1-1.3-1.5l0.7-0.8
				c0.6,0.5,1.1,1,1.5,1.7L-68.4,94.8z M-106.6,93.9l-0.7-0.8c0.5-0.4,1.1-0.8,1.8-1.3l0.6,0.9C-105.6,93.1-106.2,93.6-106.6,93.9z
				 M-78.7,93.4l-1-0.4c0.4-0.8,0.9-1.4,1.5-1.9l0.6,0.9C-78.1,92.3-78.4,92.8-78.7,93.4z M-95,93.1c-0.5-0.4-1-0.8-1.6-1l0.4-1
				c0.7,0.3,1.4,0.7,2,1.2L-95,93.1z M-71,92.5c-0.6-0.3-1.2-0.5-1.9-0.7l0.3-1c0.8,0.2,1.5,0.5,2.1,0.8L-71,92.5z M-103.6,92.1
				l-0.4-1c0.7-0.3,1.4-0.5,2.2-0.6l0.2,1.1C-102.3,91.6-102.9,91.8-103.6,92.1z M-98.1,91.6c-0.6-0.1-1.2-0.2-1.9-0.2h-0.1v-1.1
				h0.1c0.7,0,1.4,0.1,2.1,0.2L-98.1,91.6z M-76.3,91.5l-0.2-1.1c0.3,0,0.5-0.1,0.8-0.1c0.5,0,1,0,1.5,0l-0.1,1.1
				c-0.4,0-0.9,0-1.3,0C-75.9,91.5-76.1,91.5-76.3,91.5z"/>
		</g>
		<g>
			<path fill="#424142" d="M-66.5,100.6c0,0,0-0.4-0.1-1l1.1-0.1c0.1,0.7,0.1,1.1,0.1,1.1H-66.5z"/>
		</g>
	</g>
	<g>
		<path fill="#424142" d="M-64.5,106.6l-1.4-1.4l-1.4,1.4l-1.8-1.8l1.4-1.4l-1.4-1.4l1.8-1.8l1.4,1.4l1.4-1.4l1.8,1.8l-1.4,1.4
			l1.4,1.4L-64.5,106.6z M-65.9,104.5l1.4,1.4l1-1l-1.4-1.4l1.4-1.4l-1-1l-1.4,1.4l-1.4-1.4l-1,1l1.4,1.4l-1.4,1.4l1,1L-65.9,104.5z
			"/>
	</g>
	<g>
		<path fill="#424142" d="M-112.1,117.6l-0.5-0.2c0.1-0.2,1.7-5.3,6.3-6.6c2.3-0.7,3.5-0.4,4.6-0.1c1.1,0.3,2.1,0.5,4-0.1
			c4-1.3,6.2-2,10.7,2.1c4.2,3.8,6.9,3.3,10,1.2c3.3-2.3,6.4-4.1,11.1-3l-0.1,0.5c-4.5-1.1-7.3,0.6-10.6,2.9
			c-3.2,2.2-6.2,2.8-10.6-1.2c-4.3-3.9-6.2-3.3-10.2-2c-2.1,0.7-3.2,0.4-4.3,0.1c-1.1-0.3-2.2-0.5-4.4,0.1
			C-110.4,112.5-112.1,117.5-112.1,117.6z"/>
	</g>
	<g>
		<path fill="#424142" d="M-62.3,84.9l1.5-2.7l1.5,0.9L-62.3,84.9z M-60.7,82.6l-0.9,1.5l1.7-1L-60.7,82.6z"/>
	</g>
</g>
<text transform="matrix(1 0 0 1 -52.1299 107.4)"><tspan x="0" y="0" fill="#191919" font-family="'ProximaNova-Bold'" font-size="24.7477">lost</tspan><tspan x="40.6" y="0" fill="#191919" font-family="'ProximaNova-Regular'" font-size="24.7477">-grid</tspan><tspan x="90.2" y="0" fill="#DED4AA" font-family="'ProximaNova-Regular'" font-size="24.7477">.js</tspan></text>
</svg>
